# xmcd CD database file
#
# Track frame offsets:
#	183
#	18260
#	37270
#	56143
#	75750
#	95788
#	116235
#	142145
#	158910
#	180275
#	206918
#
# Disc length: 3004 seconds
#
# Revision: 8
# Processed by: cddbd v1.5.2PL0 Copyright (c) Steve Scherf et al.
# Submitted via: CDex 1.51
#
DISCID=990bba0b
DTITLE=Art Pepper - A Night At The Surf Club - Vol.1  {1952}
DYEAR=1988
DGENRE=Jazz
TTITLE0=How High The Moon
TTITLE1=Suzy The Poodle
TTITLE2=Easy Steppin'
TTITLE3=Tickle Toe
TTITLE4=Patty Cake
TTITLE5=Move
TTITLE6=All The Things You Are
TTITLE7=Don't Blame Me
TTITLE8=Surf Ride
TTITLE9=Rose Room
TTITLE10=Suzy The Poodle
EXTD=YEAR: 1988
EXTT0=
EXTT1=
EXTT2=
EXTT3=
EXTT4=
EXTT5=
EXTT6=
EXTT7=
EXTT8=
EXTT9=
EXTT10=
PLAYORDER=
